<?xml version="1.0" standalone="no"?>
<!DOCTYPE svg PUBLIC "-//W3C//DTD SVG 20010904//EN"
 "http://www.w3.org/TR/2001/REC-SVG-20010904/DTD/svg10.dtd">
<svg version="1.0" xmlns="http://www.w3.org/2000/svg"
 width="526.000000pt" height="526.000000pt" viewBox="0 0 526.000000 526.000000"
 preserveAspectRatio="xMidYMid meet">
<metadata>
Created by potrace 1.11, written by Peter Selinger 2001-2013
</metadata>
<g transform="translate(0.000000,526.000000) scale(0.100000,-0.100000)"
fill="#000000" stroke="none">
<path d="M2129 5173 c-40 -48 -50 -126 -25 -188 8 -19 11 -37 6 -40 -5 -3 -36
14 -69 38 -86 63 -196 102 -291 102 -83 0 -168 -22 -220 -57 -51 -35 -50 -74
6 -141 38 -45 31 -79 -26 -148 -165 -199 -233 -397 -205 -604 13 -98 74 -231
177 -390 68 -104 209 -343 285 -480 131 -240 358 -716 414 -870 10 -27 34 -93
54 -145 20 -52 38 -103 40 -114 2 -10 7 -21 10 -24 10 -10 5 34 -11 83 -8 28
-17 57 -19 65 -10 42 -72 205 -107 280 -76 163 -113 293 -117 420 -1 36 -3 92
-4 125 -2 52 -8 70 -50 139 -50 81 -154 223 -178 242 -8 6 -31 14 -51 18 -70
13 -123 109 -82 150 43 44 135 -18 150 -100 3 -15 31 -61 63 -103 32 -42 80
-109 105 -149 26 -40 51 -70 55 -67 5 2 12 22 16 42 5 21 9 43 10 49 2 5 15
39 30 75 18 41 27 79 26 107 -2 57 15 107 45 131 13 10 24 26 24 35 0 8 -22
53 -49 99 -44 74 -54 85 -90 95 -38 12 -90 60 -92 85 0 7 -2 20 -4 30 -5 26
32 56 62 51 58 -11 103 -64 103 -123 0 -18 14 -53 33 -83 35 -54 129 -241 159
-313 59 -145 133 -424 153 -575 1 -8 5 -37 9 -65 7 -50 10 -82 22 -209 3 -37
7 -132 9 -210 4 -177 3 -168 15 -161 22 14 100 194 124 285 46 174 50 299 15
455 -13 57 -33 85 -62 85 -25 0 -84 59 -93 94 -19 79 57 105 120 40 32 -33 55
-88 43 -101 -3 -2 3 -30 14 -61 29 -83 31 -96 34 -222 4 -124 -5 -203 -36
-310 -7 -25 -14 -51 -15 -59 -1 -7 -33 -75 -70 -150 -92 -187 -95 -196 -100
-270 -2 -36 -6 -95 -9 -131 l-6 -65 30 35 c42 49 81 125 135 265 26 66 51 129
55 140 5 11 32 79 61 150 108 268 263 555 399 743 52 73 89 153 106 232 46
210 50 247 49 445 -2 384 -127 653 -450 967 -128 125 -223 193 -362 263 -152
76 -338 110 -373 68z"/>
<path d="M784 4066 c-94 -23 -137 -56 -179 -141 -17 -33 -28 -42 -65 -53 -126
-36 -263 -135 -295 -214 -28 -67 -23 -168 13 -272 32 -94 35 -87 -37 -101 -81
-17 -180 -99 -204 -168 -31 -91 -9 -133 102 -190 113 -59 191 -67 321 -32 159
43 305 -9 494 -175 89 -79 209 -280 249 -421 l25 -84 73 -2 c149 -3 252 -64
368 -218 75 -98 163 -179 227 -207 16 -7 50 -25 75 -40 67 -40 125 -58 204
-63 99 -7 102 -2 75 81 -61 182 -161 348 -289 475 -154 153 -342 254 -388 208
-16 -16 -86 -16 -115 -1 -38 21 -49 46 -37 81 19 55 106 62 157 12 15 -15 50
-35 77 -46 237 -89 455 -313 579 -595 21 -47 44 -98 52 -115 l14 -30 0 31 c0
48 -28 198 -56 298 -75 268 -253 591 -448 816 -17 20 -53 62 -80 93 -35 41
-60 60 -87 67 -98 27 -150 147 -72 166 55 14 119 -45 130 -120 2 -17 12 -38
21 -46 25 -23 161 -186 213 -255 50 -68 95 -136 163 -247 26 -43 49 -78 52
-78 16 0 -265 590 -371 775 -15 28 -48 86 -73 130 -65 114 -187 316 -243 403
-26 40 -60 99 -74 130 -15 31 -30 63 -34 71 -9 19 -112 57 -175 65 -27 4 -53
9 -58 12 -19 12 -255 11 -304 0z"/>
<path d="M4128 3785 c-2 -1 -32 -6 -68 -9 -78 -8 -241 -61 -342 -112 -365
-182 -649 -545 -916 -1169 -65 -152 -162 -398 -162 -409 0 -15 -65 -142 -81
-159 -74 -80 -139 -313 -109 -387 15 -35 52 -61 89 -62 39 -1 134 45 189 91
172 143 285 158 552 71 161 -53 373 -106 460 -115 330 -37 538 44 679 265 28
43 51 82 51 85 0 14 92 125 135 163 52 46 155 102 235 127 68 22 137 56 170
84 246 211 310 434 190 670 -68 136 -234 315 -391 421 -44 30 -65 55 -103 120
-90 155 -235 270 -387 304 -59 14 -184 27 -191 21z"/>
<path d="M2231 3488 c-13 -18 -37 -42 -54 -53 -23 -15 -37 -39 -59 -97 -26
-73 -42 -148 -41 -193 0 -11 32 -90 71 -175 100 -220 184 -482 218 -680 4 -25
8 -47 9 -50 3 -13 15 -90 21 -130 8 -62 20 -70 39 -24 35 83 38 122 32 353 -4
124 -9 237 -11 251 -2 14 -7 54 -10 90 -3 36 -8 74 -10 85 -2 11 -9 54 -16 95
-26 161 -105 443 -149 528 l-17 34 -23 -34z"/>
<path d="M2069 3025 c-5 -61 7 -168 26 -240 8 -33 47 -136 86 -230 39 -93 75
-179 80 -190 16 -40 77 -241 84 -278 4 -22 11 -34 15 -28 3 6 -4 71 -17 144
-45 258 -116 502 -210 717 -50 115 -62 134 -64 105z"/>
<path d="M22 2923 c17 -40 49 -86 71 -102 11 -7 63 -35 116 -61 125 -63 256
-144 314 -196 62 -55 157 -183 253 -339 98 -159 144 -211 247 -278 82 -54 312
-171 397 -202 212 -78 321 -108 430 -122 67 -8 261 -9 295 -2 33 6 31 8 -55
34 -88 28 -240 110 -313 170 -36 30 -88 83 -114 116 -109 140 -170 195 -255
225 -40 14 -136 20 -183 11 -27 -6 -45 10 -45 39 0 33 -43 160 -75 225 -32 64
-84 142 -121 184 -14 17 -33 39 -43 50 -56 69 -224 179 -293 193 -45 9 -174 8
-223 -2 -129 -26 -235 -12 -330 45 -77 47 -89 49 -73 12z"/>
<path d="M707 2273 c-6 -9 -28 -119 -46 -223 -10 -57 -8 -327 3 -370 3 -13 8
-42 12 -63 8 -56 59 -193 93 -250 63 -107 162 -204 271 -265 188 -106 431
-157 558 -119 48 15 107 71 127 119 43 107 10 320 -77 494 -23 46 -28 50 -99
75 -41 14 -87 31 -102 37 -253 105 -460 220 -546 304 -19 18 -69 86 -111 152
-43 65 -80 114 -83 109z"/>
<path d="M2335 1662 c-6 -4 -12 -18 -12 -31 -1 -13 -8 -28 -15 -32 -17 -12
-296 -14 -418 -4 -91 7 -166 18 -187 26 -12 5 -25 4 -28 -1 -3 -4 8 -43 24
-84 48 -125 64 -203 65 -311 0 -92 -2 -104 -28 -152 -28 -51 -75 -92 -126
-111 -37 -13 -169 -15 -236 -3 -93 17 -96 18 -161 41 -35 12 -67 18 -73 15
-15 -9 -1 -139 30 -285 5 -25 12 -56 14 -70 3 -14 8 -36 11 -50 19 -82 21
-113 12 -154 -8 -37 -7 -49 7 -70 37 -58 120 -78 200 -50 68 24 124 18 225
-28 130 -58 347 -74 485 -36 308 85 615 408 707 744 38 138 17 241 -67 334
-69 76 -129 101 -241 101 -77 0 -91 7 -117 57 -7 15 -17 43 -21 62 -10 54 -26
100 -33 100 -4 0 -12 -4 -17 -8z"/>
<path d="M2910 1654 c-49 -21 -269 -167 -269 -179 0 -5 27 -26 61 -45 64 -37
112 -88 144 -155 15 -32 19 -61 18 -145 0 -118 -16 -176 -85 -312 -30 -62 -37
-83 -30 -101 14 -37 122 -129 216 -183 274 -157 302 -176 357 -234 38 -39 61
-73 68 -100 5 -22 15 -58 20 -80 18 -68 84 -79 171 -27 46 28 55 39 68 82 19
60 55 98 145 150 158 92 259 245 290 436 21 128 7 267 -44 434 -33 107 -127
295 -148 296 -203 12 -322 34 -535 100 -89 28 -189 57 -222 64 -77 19 -180 18
-225 -1z"/>
</g>
</svg>
